<svg xmlns="http://www.w3.org/2000/svg" xmlns:ns1="http://www.w3.org/1999/xlink" id="z11912" class="acjk" version="1.1" viewBox="0.0 0.0 1024.0 1024.0" width="165" height="165">
<style>

@keyframes zk {
	to {
		stroke-dashoffset:0;
	}
}
svg.acjk path[clip-path] {
	--t:0.8s;
	animation:zk var(--t) linear forwards var(--d);
	stroke-dasharray:3337;
	stroke-dashoffset:3339;
	stroke-width:128;
	stroke-linecap:round;
	fill:none;
	stroke:#000;
}
svg.acjk path[id] {fill:#ccc;}

</style>
<path id="z11912d1" d="M436 442C470 412 500 377 531 348C545 335 540 315 512 286C496 269 481 260 468 258C455 257 450 266 454 282C457 296 452 318 437 344C411 390 335 483 225 575C214 584 207 589 207 594C208 599 212 603 218 601C256 594 314 549 417 458C430 447 430 447 436 442Z" />
<path id="z11912d2" d="M532 661C604 579 654 509 728 456C740 447 743 439 733 429C723 418 703 405 673 389C667 386 645 392 608 401C504 428 446 440 436 442C428 444 410 454 417 458C454 480 519 462 547 458C571 455 627 437 610 472C590 514 556 575 499 661C455 725 512 683 532 661Z" />
<defs>
	<clipPath id="z11912c1"><use ns1:href="#z11912d1" /></clipPath>
	<clipPath id="z11912c2"><use ns1:href="#z11912d2" /></clipPath>
</defs>
<path style="--d:1s;" pathLength="3333" clip-path="url(#z11912c1)" d="M463 264L493 313L481 346L343 495L216 591" />
<path style="--d:2s;" pathLength="3333" clip-path="url(#z11912c2)" d="M425 456L625 423L686 453L488 686" />
</svg>